<svg width="102" height="72" viewBox="0 0 102 72" fill="none" xmlns="http://www.w3.org/2000/svg">
<path d="M-1.84774e-05 71.52V59.52H4.12798C10.272 59.52 14.208 55.68 14.208 49.824V1.33514e-05H27.36V49.344C27.36 62.688 18.336 71.52 4.12798 71.52H-1.84774e-05ZM40.8555 71.52V1.33514e-05H64.1835C86.9355 1.33514e-05 101.527 14.688 101.527 35.712C101.527 56.64 86.8395 71.52 64.1835 71.52H40.8555ZM53.9115 60H64.4715C79.0635 60 88.3755 50.496 88.3755 35.712C88.3755 20.928 78.9675 11.52 64.4715 11.52H53.9115V60Z" fill="#8B5CF6"/>
</svg>
